<svg xmlns="http://www.w3.org/2000/svg" version="1.1" xmlns:xlink="http://www.w3.org/1999/xlink" xmlns:svgjs="http://svgjs.com/svgjs" width="256" height="256"><svg xmlns="http://www.w3.org/2000/svg" width="256" height="256" viewBox="0 0 100 100"><rect width="100" height="100" rx="20" fill="#d5d6db"></rect><path fill="#33635c" d="M26.06 41.00L19.83 41.00L19.83 65.43Q19.27 65.58 18.25 65.71Q17.23 65.84 16.11 65.84L16.11 65.84Q13.71 65.84 12.74 65.02Q11.78 64.20 11.78 62.06L11.78 62.06L11.78 41.00L3.77 41.00Q3.46 40.49 3.18 39.67Q2.90 38.86 2.90 37.89L2.90 37.89Q2.90 36.15 3.67 35.36Q4.43 34.57 5.76 34.57L5.76 34.57L28.04 34.57Q28.40 35.08 28.66 35.90Q28.91 36.71 28.91 37.68L28.91 37.68Q28.91 39.37 28.15 40.18Q27.38 41.00 26.06 41.00L26.06 41.00ZM57.47 38.86L57.47 38.86Q57.47 40.03 56.86 40.92Q56.25 41.81 55.43 42.32L55.43 42.32Q54.11 41.46 52.55 40.79Q50.99 40.13 48.85 40.13L48.85 40.13Q44.77 40.13 42.48 42.71Q40.18 45.28 40.18 50.03L40.18 50.03Q40.18 54.92 42.60 57.39Q45.03 59.87 49.26 59.87L49.26 59.87Q51.45 59.87 53.01 59.28Q54.56 58.70 55.89 57.88L55.89 57.88Q56.66 58.49 57.14 59.43Q57.62 60.38 57.62 61.55L57.62 61.55Q57.62 62.57 57.09 63.46Q56.55 64.36 55.23 64.97L55.23 64.97Q54.21 65.48 52.47 65.91Q50.74 66.35 48.19 66.35L48.19 66.35Q44.77 66.35 41.81 65.38Q38.86 64.41 36.66 62.42Q34.47 60.43 33.22 57.34Q31.97 54.26 31.97 50.03L31.97 50.03Q31.97 46.05 33.22 42.99Q34.47 39.93 36.61 37.86Q38.75 35.80 41.61 34.73Q44.47 33.65 47.73 33.65L47.73 33.65Q52.37 33.65 54.92 35.13Q57.47 36.61 57.47 38.86ZM83.48 57.78L83.48 57.78Q82.87 58.29 81.90 58.59Q80.93 58.90 79.71 58.90L79.71 58.90Q78.08 58.90 76.98 58.49Q75.88 58.08 75.53 57.06L75.53 57.06Q73.89 52.32 72.75 49.18Q71.60 46.05 70.94 43.75L70.94 43.75L70.73 43.75Q70.58 46.91 70.48 49.54Q70.37 52.17 70.30 54.67Q70.22 57.17 70.12 59.72Q70.02 62.27 69.86 65.33L69.86 65.33Q69.30 65.53 68.36 65.71Q67.42 65.89 66.40 65.89L66.40 65.89Q64.41 65.89 63.29 65.20Q62.16 64.51 62.16 62.83L62.16 62.83Q62.16 61.86 62.24 60.15Q62.32 58.44 62.44 56.22Q62.57 54.00 62.75 51.45Q62.93 48.90 63.11 46.28Q63.29 43.65 63.44 41.07Q63.59 38.50 63.74 36.31L63.74 36.31Q64.15 35.75 65.40 35.06Q66.65 34.37 68.90 34.37L68.90 34.37Q71.29 34.37 72.67 35.13Q74.05 35.90 74.76 37.63L74.76 37.63Q75.32 39.01 75.93 40.72Q76.55 42.43 77.16 44.21Q77.77 46.00 78.36 47.76Q78.94 49.52 79.45 50.99L79.45 50.99L79.71 50.99Q81.14 46.51 82.56 42.30Q83.99 38.09 85.06 35.24L85.06 35.24Q85.78 34.88 86.87 34.62Q87.97 34.37 89.30 34.37L89.30 34.37Q91.59 34.37 92.97 35.03Q94.34 35.69 94.60 36.97L94.60 36.97Q94.80 37.99 95.06 40.08Q95.31 42.17 95.57 44.87Q95.82 47.58 96.08 50.56Q96.33 53.54 96.54 56.32Q96.74 59.10 96.89 61.40Q97.05 63.69 97.10 64.97L97.10 64.97Q96.33 65.43 95.47 65.66Q94.60 65.89 93.27 65.89L93.27 65.89Q91.59 65.89 90.39 65.27Q89.19 64.66 89.09 62.88L89.09 62.88Q88.73 56.96 88.61 52.04Q88.48 47.12 88.33 43.96L88.33 43.96L88.07 43.96Q87.46 46.10 86.31 49.36Q85.16 52.63 83.48 57.78Z"></path></svg><style>@media (prefers-color-scheme: light) { :root { filter: contrast(1) brightness(1); } }
@media (prefers-color-scheme: dark) { :root { filter: contrast(0.9090909090909091) brightness(1.5); } }
</style></svg>